# xmcd
#
# Track frame offsets: 
#        150
#        19168
#        25463
#        44415
#        63313
#        79769
#        101461
#        118804
#        137528
#        157364
#        174893
#        197699
#        215326
#        231739
#        238404
#        260118
#        265916
#        290146
#        307881
#
# Disc length: 4377 seconds
#
# Revision: 0
# Processed by: cddbd v1.5.2PL0 Copyright (c) Steve Scherf et al.
# Submitted via: ExactAudioCopy v0.99pb4
#
DISCID=22111713
DTITLE=Guerilla Maab - Rise
DYEAR=1999
DGENRE=Texas Rap
TTITLE0=Keep Watching Me
TTITLE1=Interlude (Psalms)
TTITLE2=Rise
TTITLE3=Endz
TTITLE4=Fondren and Main
TTITLE5=South Side Story
TTITLE6=Not My Home
TTITLE7=Still Here
TTITLE8=World Keep Turnin
TTITLE9=Live My Life
TTITLE10=Ain't Getting Shit
TTITLE11=Jealous Nigga
TTITLE12=What Will It Take
TTITLE13=Scotty (Skit)
TTITLE14=Problems
TTITLE15=Interlude (Final Cry)
TTITLE16=Speak On It
TTITLE17=Fondren and Main (Remix)
TTITLE18=BONUS TRACK
EXTD=
EXTT0=
EXTT1=
EXTT2=
EXTT3=
EXTT4=
EXTT5=
EXTT6=
EXTT7=
EXTT8=
EXTT9=
EXTT10=
EXTT11=
EXTT12=
EXTT13=
EXTT14=
EXTT15=
EXTT16=
EXTT17=
EXTT18=
PLAYORDER=
